<svg width="24" height="25" viewBox="0 0 24 25" fill="none" xmlns="http://www.w3.org/2000/svg">
<circle cx="12" cy="12.9243" r="12" fill="#045299"/>
<path d="M17 13.777V12.0716C17 11.7748 16.7612 11.5359 16.4643 11.5359H13.3884V8.46003C13.3884 8.16316 13.1496 7.92432 12.8527 7.92432H11.1473C10.8504 7.92432 10.6116 8.16316 10.6116 8.46003V11.5359H7.53571C7.23884 11.5359 7 11.7748 7 12.0716V13.777C7 14.0739 7.23884 14.3127 7.53571 14.3127H10.6116V17.3886C10.6116 17.6855 10.8504 17.9243 11.1473 17.9243H12.8527C13.1496 17.9243 13.3884 17.6855 13.3884 17.3886V14.3127H16.4643C16.7612 14.3127 17 14.0739 17 13.777Z" fill="white"/>
</svg>
