<svg width="62" height="63" viewBox="0 0 62 63" fill="none" xmlns="http://www.w3.org/2000/svg">
<path d="M2.60895 28.454C2.22712 29.1592 9.16122 59.404 9.72649 59.6038C10.2904 59.8049 34.4463 62.6883 36.9438 62.0809C39.44 61.4735 60.5942 50.5037 60.8755 49.8189C61.1568 49.134 55.4687 19.4762 54.6249 18.8077C53.3952 17.8348 28.5938 17.139 27.1358 17.6432C25.6764 18.1473 2.99078 27.7488 2.60895 28.454Z" fill="#A72A28"/>
<path d="M54.4005 18.7058C49.222 21.4085 30.8425 30.3129 29.6101 30.5616C28.379 30.8102 33.0384 56.4432 36.195 62.157C36.5265 62.1448 36.7806 62.1203 36.9423 62.0809C39.4385 61.4735 60.5927 50.5037 60.874 49.8189C61.1553 49.134 55.4672 19.4762 54.6234 18.8077C54.5799 18.7737 54.5025 18.7398 54.4005 18.7058Z" fill="#FF4D4D"/>
<path d="M28.8762 30.9081C29.5556 30.5874 47.238 22.2496 53.7319 18.752C53.8066 18.7126 53.7889 18.6011 53.706 18.5862C49.2002 17.7464 28.3612 17.2043 27.0282 17.6649C25.5701 18.1677 2.88451 27.7705 2.50267 28.4757C2.49044 28.4975 2.48637 28.5518 2.48909 28.6307C2.49044 28.6741 2.5217 28.7108 2.56518 28.7163C7.93663 29.4826 28.0717 30.8632 28.834 30.9162C28.849 30.9162 28.8626 30.9135 28.8762 30.9081Z" fill="#C23733"/>
<path d="M51.4488 18.2981C51.4488 18.2981 52.2872 19.502 50.4283 20.4641C43.9888 23.8 29.963 30.9937 28.8556 30.9162C28.1748 30.8686 22.5778 30.5317 16.8694 30.1104C10.6323 29.6498 4.26214 29.0899 4.01891 28.6986C3.55419 27.9485 4.09093 27.4933 3.82188 27.7216C3.65203 27.8656 3.18188 28.0192 2.78646 28.2393C2.58943 28.3494 2.4617 28.5464 2.50654 28.7679C2.64514 29.4487 2.91555 30.7572 2.83537 30.2939C2.72939 29.6756 3.95913 29.4392 5.49053 29.7598C6.31805 29.9324 12.8282 30.7042 18.7459 31.0698C23.7708 31.3796 25.9966 31.9326 27.21 33.1542C29.8774 35.8406 30.9998 43.2408 30.9196 42.5478L54.2928 20.3418L54.4002 18.7058L51.4488 18.2981Z" fill="#FF4D4D"/>
<path d="M33.3267 53.6888C33.665 54.1372 35.6625 62.2209 36.5131 62.1557C37.3624 62.0891 38.5432 61.3268 38.5432 61.3268C38.5432 61.3268 36.827 61.7779 35.5388 58.8931C34.252 56.0111 33.3267 53.6888 33.3267 53.6888Z" fill="white"/>
<path opacity="0.63" d="M41.2486 38.3368L37.9548 38.2186L35.9913 40.8642L35.0863 37.6968L31.9624 36.6464L34.6964 34.8052L34.729 31.51L37.3243 33.5415L40.4687 32.555L39.3395 35.6504L41.2486 38.3368Z" fill="#8E0700"/>
<path opacity="0.63" d="M44.1997 58.2667L41.2687 55.8602L37.6244 56.9093L39.0076 53.379L36.8838 50.2374L40.6695 50.4616L43.0012 47.4708L43.9565 51.141L47.5221 52.4333L44.3275 54.477L44.1997 58.2667Z" fill="#8E0700"/>
<path opacity="0.63" d="M50.4507 47.9546L47.574 46.5128L44.7544 48.0646L45.2368 44.8823L42.8901 42.681L46.0657 42.1564L47.4341 39.2445L48.9138 42.1021L52.1071 42.5029L49.846 44.7939L50.4507 47.9546Z" fill="#8E0700"/>
<g opacity="0.63">
<path opacity="0.63" d="M54.4142 31.2478L51.5593 30.0466L48.8281 31.9177L49.2629 28.6144L46.9814 26.6115L50.0116 25.7323L51.2427 22.5853L52.7456 25.3722L55.8424 25.4524L53.7307 28.0505L54.4142 31.2478Z" fill="#8E0700"/>
</g>
<path opacity="0.63" d="M58.3406 35.1218L57.5932 35.6273L55.0658 34.6353L55.8172 37.2443L54.0942 39.341L56.8065 39.4334L58.2672 41.7189L59.1695 39.235L58.3406 35.1218Z" fill="#8E0700"/>
<path opacity="0.63" d="M59.5325 50.0118L60.1141 50.2564L61.2487 49.5471L60.2105 44.3931L59.2159 42.5505L57.9848 45.6975L54.9546 46.5767L57.2361 48.5796L56.8012 51.8829L59.5325 50.0118Z" fill="#8E0700"/>
<path opacity="0.63" d="M23.7417 42.1007L26.7325 40.7161L29.5684 42.3942L29.1757 39.1235L31.6474 36.944L28.4147 36.3067L27.1075 33.2819L25.5014 36.1599L22.2212 36.4684L24.4619 38.8844L23.7417 42.1007Z" fill="#8E0700"/>
<path opacity="0.63" d="M26.9729 60.3226L28.7421 56.969L32.5088 56.5247L29.8659 53.8056L30.6064 50.0865L27.2039 51.7593L23.8952 49.9058L24.436 53.6589L21.6504 56.2325L25.3872 56.878L26.9729 60.3226Z" fill="#8E0700"/>
<path opacity="0.63" d="M21.3295 50.4222L22.9533 48.5252L25.4372 48.7889L24.1355 46.6569L25.1532 44.3767L22.7237 44.9556L20.8689 43.2829L20.6691 45.7723L18.5059 47.0197L20.8118 47.979L21.3295 50.4222Z" fill="#8E0700"/>
<g opacity="0.63">
<path opacity="0.63" d="M28.5536 29.5777L30.687 28.0599L34.6887 27.7365L31.8487 26.5788L32.3216 24.7865L29.2289 25.788L26.2884 25.1969L26.6716 26.837L23.9146 28.1469L27.3306 28.1795L28.5536 29.5777Z" fill="#8E0700"/>
</g>
<g opacity="0.63">
<path opacity="0.63" d="M40.5003 22.7048L42.6323 21.187L46.634 20.8636L43.7941 19.7059L44.2669 17.9136L41.1756 18.915L38.2337 18.3239L38.6169 19.964L35.8599 21.2739L39.276 21.3066L40.5003 22.7048Z" fill="#8E0700"/>
</g>
<g opacity="0.63">
<path opacity="0.63" d="M13.6359 28.6469L15.5219 27.3044L19.063 27.0177L16.5506 25.9945L16.9691 24.4088L14.2338 25.2947L11.6316 24.7716L11.9713 26.2214L9.53223 27.3805L12.5543 27.4104L13.6359 28.6469Z" fill="#8E0700"/>
</g>
<g opacity="0.63">
<path opacity="0.63" d="M11.0042 43.0886L13.6702 40.3655L17.6611 41.1849L15.5929 37.6451L17.2263 34.2847L13.3685 34.7318L10.4715 31.7491L10.0965 35.6259L6.62061 37.1953L10.2555 39.1357L11.0042 43.0886Z" fill="#8E0700"/>
</g>
<path opacity="0.63" d="M5.7915 43.946L6.68154 44.0941L8.56759 42.1442L8.96844 44.8279L11.4075 46.0196L8.97796 47.2303L8.59884 49.918L6.7454 48.032L5.7915 43.946Z" fill="#8E0700"/>
<path opacity="0.63" d="M9.60472 59.5114L8.38721 55.0109L8.80844 52.9469L11.1633 55.3697L14.2968 55.0069L12.9705 57.7381L14.7601 60.2696L9.60472 59.5114Z" fill="#8E0700"/>
<path opacity="0.58" d="M53.1329 21.9248C51.5363 22.1436 31.961 32.3321 31.3849 33.7847C30.8101 35.2373 43.6986 36.6491 45.5072 34.9451C47.3171 33.2425 53.1329 21.9248 53.1329 21.9248Z" fill="#8E0700"/>
<path opacity="0.58" d="M60.503 48.2793C59.4458 49.4968 39.9425 60.021 38.3622 59.6541C36.7819 59.2858 46.1687 47.57 48.6363 47.0455C51.104 46.5196 60.503 48.2793 60.503 48.2793Z" fill="#8E0700"/>
<path d="M60.5036 48.2793C60.5036 48.2793 51.2309 47.6855 49.1995 47.6977C45.2698 47.7222 38.3819 60.54 38.3628 59.6527C38.3452 58.7654 44.4952 48.8283 48.0255 47.3105C51.5557 45.794 60.5036 48.2793 60.5036 48.2793Z" fill="#8E0700"/>
<path d="M53.1326 21.9248C52.8282 22.5132 47.3372 33.5116 45.5082 34.9451C43.6792 36.3787 38.2222 35.611 38.2222 35.611C38.2222 35.611 42.2049 35.918 45.1644 33.1134C48.1226 30.3088 53.1326 21.9248 53.1326 21.9248Z" fill="#8E0700"/>
<path opacity="0.13" d="M55.8422 25.4523C55.8422 25.4523 32.1823 40.5014 31.7774 41.3099C31.3725 42.1184 33.4093 49.4044 33.4093 49.4044C35.188 48.3092 57.5856 34.1026 57.36 32.9775C57.0217 31.3021 55.8422 25.4523 55.8422 25.4523Z" fill="white"/>
<path opacity="0.13" d="M58.261 37.4508C58.261 37.4508 34.601 52.4998 34.1961 53.3083C33.7912 54.1168 36.0468 59.8375 36.0468 59.8375C39.1572 57.5411 59.4323 43.2612 59.2067 42.136C58.8684 40.4606 58.261 37.4508 58.261 37.4508Z" fill="white"/>
<path d="M12.1953 29.7911C12.1953 29.7911 27.0473 32.0155 28.86 31.65C30.6727 31.2845 45.526 23.8897 45.526 23.8897C45.526 23.8897 30.0802 31.8225 30.1183 33.9111C30.1549 35.9996 31.2366 40.5965 30.799 40.11C30.3615 39.6236 29.9688 34.0374 27.652 32.9368C25.3352 31.8361 12.1953 29.7911 12.1953 29.7911Z" fill="white"/>
<path opacity="0.74" d="M43.9767 18.0073C43.2986 17.9774 19.367 29.9773 18.5476 30.5357C17.7282 31.0942 24.8294 61.5673 24.8294 61.5673L18.3329 60.699C18.3329 60.699 11.43 30.0642 11.9953 29.2571C12.5606 28.4513 35.6308 18.1256 37.8008 17.688C39.9709 17.2518 43.9767 18.0073 43.9767 18.0073Z" fill="#741F19"/>
<path d="M42.9648 17.8429C42.2867 17.813 18.5276 30.1457 17.7082 30.7042C16.8889 31.2627 23.9901 61.7358 23.9901 61.7358L17.4935 60.8675C17.4935 60.8675 10.5907 30.2327 11.156 29.4256C11.7212 28.6198 34.9409 18.3348 37.1109 17.8986C39.281 17.4611 42.9648 17.8429 42.9648 17.8429Z" fill="#E7B529"/>
<path d="M43.1153 17.7002C42.2457 17.832 18.53 30.1607 17.7107 30.7192C16.8913 31.2776 23.9925 61.7507 23.9925 61.7507L17.496 60.8824C17.496 60.8824 10.5931 30.2477 11.1584 29.4405C11.7237 28.6334 34.9393 18.3334 37.1093 17.8973C39.3106 17.457 42.2715 17.6418 43.1153 17.7002Z" fill="url(#paint0_linear_13107_82454)"/>
<path d="M17.7964 30.6879C18.6158 30.1294 42.6004 18.1147 43.2785 18.1459C43.2785 18.1459 41.7566 17.688 40.3366 17.5766C41.3218 17.6948 42.7744 17.6785 42.7744 17.6785C42.1575 17.6513 21.8566 27.852 17.6455 30.1675L11.1599 29.4419L11.1436 30.0031C11.8243 30.0302 15.7486 31.1554 16.8343 31.2124C17.1007 35.5063 22.9341 60.6039 23.1651 61.5972L24.0782 61.7195C24.0769 61.7195 16.977 31.2464 17.7964 30.6879Z" fill="#F5E44C"/>
<path opacity="0.74" d="M11.5352 24.1207C12.148 23.8286 39.2634 26.2731 40.2363 26.4742C41.2079 26.6739 46.51 57.7286 46.51 57.7286L52.16 54.3981C52.16 54.3981 46.6133 23.2701 45.779 22.7415C44.9447 22.2129 18.7261 21.274 16.556 21.7115C14.386 22.1477 11.5352 24.1207 11.5352 24.1207Z" fill="#741F19"/>
<path d="M12.3789 23.9672C12.9917 23.675 40.1072 26.1196 41.0801 26.3207C42.0516 26.5204 47.3538 57.5751 47.3538 57.5751L53.0038 54.2446C53.0038 54.2446 47.4571 23.1165 46.6227 22.588C45.7884 22.0594 19.5698 21.1204 17.3998 21.558C15.2284 21.9942 12.3789 23.9672 12.3789 23.9672Z" fill="url(#paint1_linear_13107_82454)"/>
<path d="M40.9888 26.3234C40.0172 26.1236 12.9004 23.6791 12.2876 23.9699C12.2876 23.9699 13.2877 23.2782 14.5541 22.6233C13.6913 23.1165 13.0879 23.5337 13.0879 23.5337C13.6451 23.2687 40.9249 25.7812 40.9249 25.7812C40.9249 25.7812 41.9834 25.7554 42.0785 26.4362C43.5026 30.5262 47.8821 56.098 48.0547 57.109L47.2598 57.5778C47.2611 57.5778 41.9603 26.5231 40.9888 26.3234Z" fill="url(#paint2_linear_13107_82454)"/>
<path d="M46.2121 22.7945C45.7773 22.7401 40.895 25.2404 41.2035 25.5543C41.5119 25.8668 41.7157 26.1766 41.8761 26.0625C42.0364 25.9483 46.8902 23.0635 46.7556 22.8257C46.6211 22.5866 46.2121 22.7945 46.2121 22.7945Z" fill="white"/>
<path opacity="0.31" d="M43.2474 22.7197C41.6427 24.0365 40.9306 23.6383 39.724 23.3883C38.5174 23.1383 36.812 22.5295 34.5306 22.8706C32.2491 23.2116 33.415 23.1845 33.415 23.1845C33.415 23.1845 32.9828 24.8518 31.0017 25.5746C29.0205 26.2975 24.1967 26.4062 23.5118 26.1549C22.827 25.9035 22.1163 25.5733 21.4817 26.1644C20.8472 26.7555 20.3947 28.0042 20.218 28.5573C20.0414 29.1103 20.4694 30.2164 20.0482 30.3387C19.6283 30.461 17.0778 29.6797 15.2963 29.5506C13.5149 29.4228 10.7402 29.4052 11.5283 28.5437C12.3164 27.6822 15.3915 26.6522 15.3915 26.6522C15.3915 26.6522 18.9054 25.1181 21.4043 24.5256C23.9018 23.9332 28.7515 23.0445 28.7515 23.0445L33.6881 21.7183L39.69 21.9208L43.4064 22.2904L43.2474 22.7197Z" fill="#8E0700"/>
<path opacity="0.52" d="M13.0308 24.3734C11.4369 24.6044 8.55347 25.5651 8.55347 25.5651C8.55347 25.5651 4.14951 26.8112 6.80194 27.5028C9.45438 28.1945 13.5798 27.0938 13.5798 27.0938C13.5798 27.0938 27.7293 23.0567 28.9739 22.8352C30.2186 22.6138 42.6329 21.187 42.6329 21.187C42.6329 21.187 44.3423 21.8773 45.837 20.9288C47.3331 19.9804 47.5056 18.0046 47.5056 18.0046L40.3365 17.5766L20.6185 21.8746L16.9266 22.145L13.0308 24.3734Z" fill="#8E0700"/>
<path d="M4.33826 8.32024C-4.0362 15.7884 1.21975 24.7376 7.45949 26.038C13.6992 27.3384 26.7902 22.361 26.7902 22.361C26.7902 22.361 12.7114 0.853474 4.33826 8.32024ZM14.1531 19.5224C10.1337 18.6106 8.42834 16.9366 8.42834 16.9366C8.42834 16.9366 9.57111 13.9512 13.547 14.5423C17.701 15.1606 21.5465 20.085 21.5465 20.085C21.5465 20.085 18.1725 20.4355 14.1531 19.5224Z" fill="#E88900"/>
<mask id="mask0_13107_82454" style="mask-type:alpha" maskUnits="userSpaceOnUse" x="4" y="16" width="23" height="11">
<path d="M14.2973 19.4178C10.2779 18.506 8.57257 16.8319 8.57257 16.8319C8.57257 16.8319 8.69079 16.5248 8.98022 16.1281C8.44348 16.0452 7.51404 16.3319 6.25713 18.328C5.06679 20.2181 4.50832 22.7986 4.84938 24.8273C5.7136 25.3532 6.64575 25.7323 7.60237 25.932C13.8421 27.2324 26.9331 22.255 26.9331 22.255C26.9331 22.255 26.8271 22.0947 26.63 21.8053C25.0647 21.278 22.8294 20.5402 21.2301 20.0157C20.177 20.0741 17.4335 20.1298 14.2973 19.4178Z" fill="url(#paint3_linear_13107_82454)"/>
</mask>
<g mask="url(#mask0_13107_82454)">
<path opacity="0.65" d="M14.2973 19.4178C10.2779 18.506 8.57257 16.8319 8.57257 16.8319C8.57257 16.8319 8.69079 16.5248 8.98022 16.1281C8.44348 16.0452 7.51404 16.3319 6.25713 18.328C5.06679 20.2181 4.50832 22.7986 4.84938 24.8273C5.7136 25.3532 6.64575 25.7323 7.60237 25.932C13.8421 27.2324 26.9331 22.255 26.9331 22.255C26.9331 22.255 26.8271 22.0947 26.63 21.8053C25.0647 21.278 22.8294 20.5402 21.2301 20.0157C20.177 20.0741 17.4335 20.1298 14.2973 19.4178Z" fill="url(#paint4_linear_13107_82454)"/>
<path d="M10.8759 26.0055C8.41508 25.5055 7.74518 22.7878 7.82263 19.7943C7.90009 16.7995 9.57144 13.9527 13.5474 14.5452C16.7501 15.0221 19.7667 18.0564 20.9829 19.422L21.5482 20.0878L26.7905 22.3611C26.7905 22.3611 12.7117 0.854974 4.33724 8.32174C-4.03586 15.7885 1.22009 24.7377 7.45983 26.0381C8.80507 26.3181 10.4696 26.3072 12.2524 26.1156C11.6505 26.102 11.1762 26.0667 10.8759 26.0055Z" fill="#F7931E"/>
</g>
<mask id="mask1_13107_82454" style="mask-type:alpha" maskUnits="userSpaceOnUse" x="0" y="6" width="27" height="21">
<path d="M10.8759 26.0055C8.41508 25.5055 7.74518 22.7878 7.82263 19.7943C7.90009 16.7995 9.57144 13.9527 13.5474 14.5452C16.7501 15.0221 19.7667 18.0564 20.9829 19.422L21.5482 20.0878L26.7905 22.3611C26.7905 22.3611 12.7117 0.854974 4.33724 8.32174C-4.03586 15.7885 1.22009 24.7377 7.45983 26.0381C8.80507 26.3181 10.4696 26.3072 12.2524 26.1156C11.6505 26.102 11.1762 26.0667 10.8759 26.0055Z" fill="url(#paint5_radial_13107_82454)"/>
</mask>
<g mask="url(#mask1_13107_82454)">
<path d="M10.8759 26.0055C8.41508 25.5055 7.74518 22.7878 7.82263 19.7943C7.90009 16.7995 9.57144 13.9527 13.5474 14.5452C16.7501 15.0221 19.7667 18.0564 20.9829 19.422L21.5482 20.0878L26.7905 22.3611C26.7905 22.3611 12.7117 0.854974 4.33724 8.32174C-4.03586 15.7885 1.22009 24.7377 7.45983 26.0381C8.80507 26.3181 10.4696 26.3072 12.2524 26.1156C11.6505 26.102 11.1762 26.0667 10.8759 26.0055Z" fill="url(#paint6_radial_13107_82454)"/>
<path d="M5.21387 8.08246C5.76963 8.39907 8.99685 14.5274 9.22513 14.7883C9.45341 15.0505 9.45341 15.0505 9.45341 15.0505C9.45341 15.0505 11.1085 13.92 12.7241 14.083C14.3398 14.2461 15.1211 14.5491 15.1211 14.5491C15.1211 14.5491 14.1794 9.3122 13.4959 8.79177C12.8124 8.26998 10.4413 6.76847 8.44108 7.01986C6.44089 7.27124 5.21387 8.08246 5.21387 8.08246Z" fill="#FFF39C"/>
</g>
<path d="M27.0605 20.6652C27.0605 20.6652 23.3564 5.89746 32.0243 1.51388C40.6923 -2.87106 45.6982 3.40401 46.8193 6.02519C47.9403 8.64773 47.977 13.174 43.679 15.3196C39.381 17.4652 31.6751 23.001 29.0009 22.9168C27.581 22.8719 27.0605 20.6652 27.0605 20.6652Z" fill="#FFB600"/>
<mask id="mask2_13107_82454" style="mask-type:alpha" maskUnits="userSpaceOnUse" x="26" y="0" width="22" height="23">
<path d="M31.9428 1.55329C23.2748 5.93823 26.979 20.7046 26.979 20.7046C26.979 20.7046 27.4981 22.91 28.9194 22.9562C29.6002 22.9779 30.6084 22.6342 31.8042 22.0757C31.2145 21.6585 31.3422 20.922 31.3422 20.922C31.3911 19.1107 34.0463 2.54523 40.6624 3.33199C47.2785 4.11876 47.3356 9.43042 46.5244 11.4197C46.08 12.5095 46.0882 13.2351 45.2009 14.2909C47.8615 11.9429 47.6984 8.30802 46.7391 6.06596C45.6167 3.44206 40.6108 -2.83165 31.9428 1.55329Z" fill="url(#paint7_radial_13107_82454)"/>
</mask>
<g mask="url(#mask2_13107_82454)">
<path d="M31.9428 1.55329C23.2748 5.93823 26.979 20.7046 26.979 20.7046C26.979 20.7046 27.4981 22.91 28.9194 22.9562C29.6002 22.9779 30.6084 22.6342 31.8042 22.0757C31.2145 21.6585 31.3422 20.922 31.3422 20.922C31.3911 19.1107 34.0463 2.54523 40.6624 3.33199C47.2785 4.11876 47.3356 9.43042 46.5244 11.4197C46.08 12.5095 46.0882 13.2351 45.2009 14.2909C47.8615 11.9429 47.6984 8.30802 46.7391 6.06596C45.6167 3.44206 40.6108 -2.83165 31.9428 1.55329Z" fill="url(#paint8_radial_13107_82454)"/>
</g>
<mask id="mask3_13107_82454" style="mask-type:alpha" maskUnits="userSpaceOnUse" x="26" y="0" width="22" height="23">
<path d="M32.0453 1.55599C23.3774 5.94093 27.0815 20.7073 27.0815 20.7073C27.0815 20.7073 27.6006 22.9127 29.0219 22.9589C29.7027 22.9806 30.711 22.6369 31.9067 22.0784C31.317 21.6612 31.4447 20.9247 31.4447 20.9247C31.4936 19.1134 34.1488 2.54793 40.7649 3.3347C47.3811 4.12146 47.4381 9.43312 46.6269 11.4224C46.1826 12.5122 46.1907 13.2378 45.3034 14.2936C47.964 11.9456 47.8009 8.31073 46.8416 6.06866C45.7179 3.44476 40.7133 -2.82895 32.0453 1.55599Z" fill="url(#paint9_radial_13107_82454)"/>
</mask>
<g mask="url(#mask3_13107_82454)">
<path d="M32.0453 1.55599C23.3774 5.94093 27.0815 20.7073 27.0815 20.7073C27.0815 20.7073 27.6006 22.9127 29.0219 22.9589C29.7027 22.9806 30.711 22.6369 31.9067 22.0784C31.317 21.6612 31.4447 20.9247 31.4447 20.9247C31.4936 19.1134 34.1488 2.54793 40.7649 3.3347C47.3811 4.12146 47.4381 9.43312 46.6269 11.4224C46.1826 12.5122 46.1907 13.2378 45.3034 14.2936C47.964 11.9456 47.8009 8.31073 46.8416 6.06866C45.7179 3.44476 40.7133 -2.82895 32.0453 1.55599Z" fill="url(#paint10_radial_13107_82454)"/>
<g opacity="0.6">
<mask id="mask4_13107_82454" style="mask-type:alpha" maskUnits="userSpaceOnUse" x="30" y="22" width="1" height="1">
<g opacity="0.6">
<g opacity="0.6">
<path opacity="0.6" d="M30.2173 22.6138C30.1684 22.6287 30.1208 22.6437 30.0732 22.6573C30.1208 22.6437 30.1684 22.6287 30.2173 22.6138Z" fill="url(#paint11_linear_13107_82454)"/>
</g>
</g>
</mask>
<g mask="url(#mask4_13107_82454)">
<path opacity="0.6" d="M30.2173 22.6138C30.1684 22.6287 30.1208 22.6437 30.0732 22.6573C30.1208 22.6437 30.1684 22.6287 30.2173 22.6138Z" fill="url(#paint12_linear_13107_82454)"/>
</g>
<mask id="mask5_13107_82454" style="mask-type:alpha" maskUnits="userSpaceOnUse" x="30" y="22" width="1" height="1">
<g opacity="0.6">
<g opacity="0.6">
<path opacity="0.6" d="M30.4034 22.554C30.3504 22.5716 30.3002 22.5879 30.2485 22.6042C30.2988 22.5879 30.3504 22.5716 30.4034 22.554Z" fill="url(#paint13_linear_13107_82454)"/>
</g>
</g>
</mask>
<g mask="url(#mask5_13107_82454)">
<path opacity="0.6" d="M30.4034 22.554C30.3504 22.5716 30.3002 22.5879 30.2485 22.6042C30.2988 22.5879 30.3504 22.5716 30.4034 22.554Z" fill="url(#paint14_linear_13107_82454)"/>
</g>
<mask id="mask6_13107_82454" style="mask-type:alpha" maskUnits="userSpaceOnUse" x="29" y="22" width="1" height="1">
<g opacity="0.6">
<g opacity="0.6">
<path opacity="0.6" d="M29.8657 22.7143C29.8236 22.7252 29.7815 22.7347 29.7407 22.7442C29.7815 22.7347 29.8236 22.7252 29.8657 22.7143Z" fill="url(#paint15_linear_13107_82454)"/>
</g>
</g>
</mask>
<g mask="url(#mask6_13107_82454)">
<path opacity="0.6" d="M29.8657 22.7143C29.8236 22.7252 29.7815 22.7347 29.7407 22.7442C29.7815 22.7347 29.8236 22.7252 29.8657 22.7143Z" fill="url(#paint16_linear_13107_82454)"/>
</g>
<mask id="mask7_13107_82454" style="mask-type:alpha" maskUnits="userSpaceOnUse" x="29" y="22" width="2" height="1">
<g opacity="0.6">
<g opacity="0.6">
<path opacity="0.6" d="M30.0382 22.6681C29.992 22.6817 29.9472 22.6926 29.9023 22.7048C29.9472 22.6926 29.992 22.6804 30.0382 22.6681Z" fill="url(#paint17_linear_13107_82454)"/>
</g>
</g>
</mask>
<g mask="url(#mask7_13107_82454)">
<path opacity="0.6" d="M30.0382 22.6681C29.992 22.6817 29.9472 22.6926 29.9023 22.7048C29.9472 22.6926 29.992 22.6804 30.0382 22.6681Z" fill="url(#paint18_linear_13107_82454)"/>
</g>
<mask id="mask8_13107_82454" style="mask-type:alpha" maskUnits="userSpaceOnUse" x="30" y="22" width="1" height="1">
<g opacity="0.6">
<g opacity="0.6">
<path opacity="0.6" d="M30.9962 22.3325C30.9337 22.3583 30.8712 22.3828 30.8101 22.4059C30.8712 22.3814 30.9324 22.357 30.9962 22.3325Z" fill="url(#paint19_linear_13107_82454)"/>
</g>
</g>
</mask>
<g mask="url(#mask8_13107_82454)">
<path opacity="0.6" d="M30.9962 22.3325C30.9337 22.3583 30.8712 22.3828 30.8101 22.4059C30.8712 22.3814 30.9324 22.357 30.9962 22.3325Z" fill="url(#paint20_linear_13107_82454)"/>
</g>
<mask id="mask9_13107_82454" style="mask-type:alpha" maskUnits="userSpaceOnUse" x="30" y="22" width="1" height="1">
<g opacity="0.6">
<g opacity="0.6">
<path opacity="0.6" d="M30.5951 22.486C30.5394 22.5064 30.485 22.5254 30.4307 22.5431C30.485 22.5254 30.5394 22.5064 30.5951 22.486Z" fill="url(#paint21_linear_13107_82454)"/>
</g>
</g>
</mask>
<g mask="url(#mask9_13107_82454)">
<path opacity="0.6" d="M30.5951 22.486C30.5394 22.5064 30.485 22.5254 30.4307 22.5431C30.485 22.5254 30.5394 22.5064 30.5951 22.486Z" fill="url(#paint22_linear_13107_82454)"/>
</g>
<mask id="mask10_13107_82454" style="mask-type:alpha" maskUnits="userSpaceOnUse" x="31" y="22" width="1" height="1">
<g opacity="0.6">
<g opacity="0.6">
<path opacity="0.6" d="M31.2044 22.2455C31.1378 22.2741 31.0725 22.2999 31.0073 22.3271C31.0725 22.3012 31.1378 22.2741 31.2044 22.2455Z" fill="url(#paint23_linear_13107_82454)"/>
</g>
</g>
</mask>
<g mask="url(#mask10_13107_82454)">
<path opacity="0.6" d="M31.2044 22.2455C31.1378 22.2741 31.0725 22.2999 31.0073 22.3271C31.0725 22.3012 31.1378 22.2741 31.2044 22.2455Z" fill="url(#paint24_linear_13107_82454)"/>
</g>
<mask id="mask11_13107_82454" style="mask-type:alpha" maskUnits="userSpaceOnUse" x="30" y="22" width="1" height="1">
<g opacity="0.6">
<g opacity="0.6">
<path opacity="0.6" d="M30.7921 22.4127C30.7337 22.4358 30.6752 22.4575 30.6182 22.4779C30.6752 22.4562 30.7337 22.4344 30.7921 22.4127Z" fill="url(#paint25_linear_13107_82454)"/>
</g>
</g>
</mask>
<g mask="url(#mask11_13107_82454)">
<path opacity="0.6" d="M30.7921 22.4127C30.7337 22.4358 30.6752 22.4575 30.6182 22.4779C30.6752 22.4562 30.7337 22.4344 30.7921 22.4127Z" fill="url(#paint26_linear_13107_82454)"/>
</g>
<mask id="mask12_13107_82454" style="mask-type:alpha" maskUnits="userSpaceOnUse" x="29" y="22" width="1" height="1">
<g opacity="0.6">
<g opacity="0.6">
<path opacity="0.6" d="M29.6981 22.7537C29.6587 22.7619 29.622 22.77 29.584 22.7768C29.622 22.77 29.6601 22.7619 29.6981 22.7537Z" fill="url(#paint27_linear_13107_82454)"/>
</g>
</g>
</mask>
<g mask="url(#mask12_13107_82454)">
<path opacity="0.6" d="M29.6981 22.7537C29.6587 22.7619 29.622 22.77 29.584 22.7768C29.622 22.77 29.6601 22.7619 29.6981 22.7537Z" fill="url(#paint28_linear_13107_82454)"/>
</g>
<mask id="mask13_13107_82454" style="mask-type:alpha" maskUnits="userSpaceOnUse" x="27" y="21" width="1" height="2">
<g opacity="0.6">
<g opacity="0.6">
<path opacity="0.6" d="M27.6627 22.0037C27.5459 21.8352 27.4467 21.6572 27.3638 21.4859C27.4453 21.6558 27.5445 21.8338 27.6627 22.0037Z" fill="url(#paint29_linear_13107_82454)"/>
</g>
</g>
</mask>
<g mask="url(#mask13_13107_82454)">
<path opacity="0.6" d="M27.6627 22.0037C27.5459 21.8352 27.4467 21.6572 27.3638 21.4859C27.4453 21.6558 27.5445 21.8338 27.6627 22.0037Z" fill="url(#paint30_linear_13107_82454)"/>
</g>
<mask id="mask14_13107_82454" style="mask-type:alpha" maskUnits="userSpaceOnUse" x="27" y="22" width="2" height="1">
<g opacity="0.6">
<g opacity="0.6">
<path opacity="0.6" d="M28.0707 22.4643C27.9158 22.3311 27.7799 22.1722 27.6631 22.0023C27.7799 22.1722 27.9158 22.3311 28.0707 22.4643Z" fill="url(#paint31_linear_13107_82454)"/>
</g>
</g>
</mask>
<g mask="url(#mask14_13107_82454)">
<path opacity="0.6" d="M28.0707 22.4643C27.9158 22.3311 27.7799 22.1722 27.6631 22.0023C27.7799 22.1722 27.9158 22.3311 28.0707 22.4643Z" fill="url(#paint32_linear_13107_82454)"/>
</g>
<mask id="mask15_13107_82454" style="mask-type:alpha" maskUnits="userSpaceOnUse" x="28" y="22" width="2" height="1">
<g opacity="0.6">
<g opacity="0.6">
<path opacity="0.6" d="M28.9731 22.8353C28.6184 22.8244 28.3195 22.6776 28.0708 22.4643C28.3195 22.6776 28.6184 22.8244 28.9731 22.8353C29.0152 22.8366 29.0587 22.8366 29.1035 22.8353C29.0587 22.8366 29.0152 22.8366 28.9731 22.8353Z" fill="url(#paint33_linear_13107_82454)"/>
</g>
</g>
</mask>
<g mask="url(#mask15_13107_82454)">
<path opacity="0.6" d="M28.9731 22.8353C28.6184 22.8244 28.3195 22.6776 28.0708 22.4643C28.3195 22.6776 28.6184 22.8244 28.9731 22.8353C29.0152 22.8366 29.0587 22.8366 29.1035 22.8353C29.0587 22.8366 29.0152 22.8366 28.9731 22.8353Z" fill="url(#paint34_linear_13107_82454)"/>
</g>
<mask id="mask16_13107_82454" style="mask-type:alpha" maskUnits="userSpaceOnUse" x="29" y="22" width="1" height="1">
<g opacity="0.6">
<g opacity="0.6">
<path opacity="0.6" d="M29.2418 22.8271C29.2065 22.8298 29.1712 22.8325 29.1372 22.8339C29.1712 22.8312 29.2051 22.8298 29.2418 22.8271Z" fill="url(#paint35_linear_13107_82454)"/>
</g>
</g>
</mask>
<g mask="url(#mask16_13107_82454)">
<path opacity="0.6" d="M29.2418 22.8271C29.2065 22.8298 29.1712 22.8325 29.1372 22.8339C29.1712 22.8312 29.2051 22.8298 29.2418 22.8271Z" fill="url(#paint36_linear_13107_82454)"/>
</g>
<mask id="mask17_13107_82454" style="mask-type:alpha" maskUnits="userSpaceOnUse" x="29" y="22" width="1" height="1">
<g opacity="0.6">
<g opacity="0.6">
<path opacity="0.6" d="M29.5397 22.7863C29.5044 22.7931 29.469 22.7986 29.4351 22.8027C29.469 22.7972 29.503 22.7918 29.5397 22.7863Z" fill="url(#paint37_linear_13107_82454)"/>
</g>
</g>
</mask>
<g mask="url(#mask17_13107_82454)">
<path opacity="0.6" d="M29.5397 22.7863C29.5044 22.7931 29.469 22.7986 29.4351 22.8027C29.469 22.7972 29.503 22.7918 29.5397 22.7863Z" fill="url(#paint38_linear_13107_82454)"/>
</g>
<mask id="mask18_13107_82454" style="mask-type:alpha" maskUnits="userSpaceOnUse" x="31" y="22" width="1" height="1">
<g opacity="0.6">
<g opacity="0.6">
<path opacity="0.6" d="M31.4175 22.1545C31.3482 22.1844 31.2789 22.2143 31.2109 22.2428C31.2802 22.2143 31.3482 22.1844 31.4175 22.1545Z" fill="url(#paint39_linear_13107_82454)"/>
</g>
</g>
</mask>
<g mask="url(#mask18_13107_82454)">
<path opacity="0.6" d="M31.4175 22.1545C31.3482 22.1844 31.2789 22.2143 31.2109 22.2428C31.2802 22.2143 31.3482 22.1844 31.4175 22.1545Z" fill="url(#paint40_linear_13107_82454)"/>
</g>
<mask id="mask19_13107_82454" style="mask-type:alpha" maskUnits="userSpaceOnUse" x="29" y="22" width="1" height="1">
<g opacity="0.6">
<g opacity="0.6">
<path opacity="0.6" d="M29.3857 22.8108C29.3517 22.8149 29.3178 22.8189 29.2852 22.8217C29.3191 22.8189 29.3517 22.8149 29.3857 22.8108Z" fill="url(#paint41_linear_13107_82454)"/>
</g>
</g>
</mask>
<g mask="url(#mask19_13107_82454)">
<path opacity="0.6" d="M29.3857 22.8108C29.3517 22.8149 29.3178 22.8189 29.2852 22.8217C29.3191 22.8189 29.3517 22.8149 29.3857 22.8108Z" fill="url(#paint42_linear_13107_82454)"/>
</g>
<mask id="mask20_13107_82454" style="mask-type:alpha" maskUnits="userSpaceOnUse" x="47" y="8" width="1" height="1">
<g opacity="0.6">
<g opacity="0.6">
<path opacity="0.6" d="M47.3887 8.30804C47.3832 8.25097 47.3764 8.1939 47.3696 8.13818C47.3764 8.1939 47.3819 8.25097 47.3887 8.30804Z" fill="url(#paint43_linear_13107_82454)"/>
</g>
</g>
</mask>
<g mask="url(#mask20_13107_82454)">
<path opacity="0.6" d="M47.3887 8.30804C47.3832 8.25097 47.3764 8.1939 47.3696 8.13818C47.3764 8.1939 47.3819 8.25097 47.3887 8.30804Z" fill="url(#paint44_linear_13107_82454)"/>
</g>
<mask id="mask21_13107_82454" style="mask-type:alpha" maskUnits="userSpaceOnUse" x="47" y="8" width="1" height="1">
<g opacity="0.6">
<g opacity="0.6">
<path opacity="0.6" d="M47.4135 8.60155C47.4094 8.5404 47.4053 8.48061 47.3999 8.41946C47.404 8.48061 47.4094 8.5404 47.4135 8.60155Z" fill="url(#paint45_linear_13107_82454)"/>
</g>
</g>
</mask>
<g mask="url(#mask21_13107_82454)">
<path opacity="0.6" d="M47.4135 8.60155C47.4094 8.5404 47.4053 8.48061 47.3999 8.41946C47.404 8.48061 47.4094 8.5404 47.4135 8.60155Z" fill="url(#paint46_linear_13107_82454)"/>
</g>
<mask id="mask22_13107_82454" style="mask-type:alpha" maskUnits="userSpaceOnUse" x="45" y="10" width="3" height="4">
<g opacity="0.6">
<g opacity="0.6">
<path opacity="0.6" d="M45.4961 13.9417C46.5016 12.9593 47.0547 11.7812 47.2911 10.5827C47.0547 11.7812 46.5016 12.9607 45.4961 13.9417Z" fill="url(#paint47_linear_13107_82454)"/>
</g>
</g>
</mask>
<g mask="url(#mask22_13107_82454)">
<path opacity="0.6" d="M45.4961 13.9417C46.5016 12.9593 47.0547 11.7812 47.2911 10.5827C47.0547 11.7812 46.5016 12.9607 45.4961 13.9417Z" fill="url(#paint48_linear_13107_82454)"/>
</g>
<mask id="mask23_13107_82454" style="mask-type:alpha" maskUnits="userSpaceOnUse" x="47" y="8" width="1" height="1">
<g opacity="0.6">
<g opacity="0.6">
<path opacity="0.6" d="M47.4266 8.8964C47.4253 8.82982 47.4212 8.7646 47.4185 8.69801C47.4212 8.7646 47.4239 8.83118 47.4266 8.8964Z" fill="url(#paint49_linear_13107_82454)"/>
</g>
</g>
</mask>
<g mask="url(#mask23_13107_82454)">
<path opacity="0.6" d="M47.4266 8.8964C47.4253 8.82982 47.4212 8.7646 47.4185 8.69801C47.4212 8.7646 47.4239 8.83118 47.4266 8.8964Z" fill="url(#paint50_linear_13107_82454)"/>
</g>
<mask id="mask24_13107_82454" style="mask-type:alpha" maskUnits="userSpaceOnUse" x="47" y="7" width="1" height="2">
<g opacity="0.6">
<g opacity="0.6">
<path opacity="0.6" d="M47.3533 8.01724C47.3465 7.96425 47.3397 7.91126 47.3315 7.85826C47.3397 7.9099 47.3465 7.96425 47.3533 8.01724Z" fill="url(#paint51_linear_13107_82454)"/>
</g>
</g>
</mask>
<g mask="url(#mask24_13107_82454)">
<path opacity="0.6" d="M47.3533 8.01724C47.3465 7.96425 47.3397 7.91126 47.3315 7.85826C47.3397 7.9099 47.3465 7.96425 47.3533 8.01724Z" fill="url(#paint52_linear_13107_82454)"/>
</g>
<mask id="mask25_13107_82454" style="mask-type:alpha" maskUnits="userSpaceOnUse" x="47" y="7" width="1" height="1">
<g opacity="0.6">
<g opacity="0.6">
<path opacity="0.6" d="M47.3075 7.71422C47.2952 7.6422 47.2817 7.57154 47.2681 7.49953C47.2817 7.57154 47.2952 7.6422 47.3075 7.71422Z" fill="url(#paint53_linear_13107_82454)"/>
</g>
</g>
</mask>
<g mask="url(#mask25_13107_82454)">
<path opacity="0.6" d="M47.3075 7.71422C47.2952 7.6422 47.2817 7.57154 47.2681 7.49953C47.2817 7.57154 47.2952 7.6422 47.3075 7.71422Z" fill="url(#paint54_linear_13107_82454)"/>
</g>
<mask id="mask26_13107_82454" style="mask-type:alpha" maskUnits="userSpaceOnUse" x="47" y="8" width="1" height="2">
<g opacity="0.6">
<g opacity="0.6">
<path opacity="0.6" d="M47.3809 9.99978C47.4203 9.65192 47.4352 9.30542 47.4284 8.963C47.4352 9.30542 47.4203 9.65192 47.3809 9.99978Z" fill="url(#paint55_linear_13107_82454)"/>
</g>
</g>
</mask>
<g mask="url(#mask26_13107_82454)">
<path opacity="0.6" d="M47.3809 9.99978C47.4203 9.65192 47.4352 9.30542 47.4284 8.963C47.4352 9.30542 47.4203 9.65192 47.3809 9.99978Z" fill="url(#paint56_linear_13107_82454)"/>
</g>
<mask id="mask27_13107_82454" style="mask-type:alpha" maskUnits="userSpaceOnUse" x="47" y="10" width="1" height="1">
<g opacity="0.6">
<g opacity="0.6">
<path opacity="0.6" d="M47.2935 10.5664C47.3098 10.4808 47.3247 10.3952 47.3383 10.3096C47.3261 10.3952 47.3111 10.4808 47.2935 10.5664Z" fill="url(#paint57_linear_13107_82454)"/>
</g>
</g>
</mask>
<g mask="url(#mask27_13107_82454)">
<path opacity="0.6" d="M47.2935 10.5664C47.3098 10.4808 47.3247 10.3952 47.3383 10.3096C47.3261 10.3952 47.3111 10.4808 47.2935 10.5664Z" fill="url(#paint58_linear_13107_82454)"/>
</g>
<mask id="mask28_13107_82454" style="mask-type:alpha" maskUnits="userSpaceOnUse" x="47" y="10" width="1" height="1">
<g opacity="0.6">
<g opacity="0.6">
<path opacity="0.6" d="M47.3442 10.2756C47.3565 10.1914 47.3687 10.1071 47.3782 10.0229C47.3687 10.1071 47.3578 10.1914 47.3442 10.2756Z" fill="url(#paint59_linear_13107_82454)"/>
</g>
</g>
</mask>
<g mask="url(#mask28_13107_82454)">
<path opacity="0.6" d="M47.3442 10.2756C47.3565 10.1914 47.3687 10.1071 47.3782 10.0229C47.3687 10.1071 47.3578 10.1914 47.3442 10.2756Z" fill="url(#paint60_linear_13107_82454)"/>
</g>
<mask id="mask29_13107_82454" style="mask-type:alpha" maskUnits="userSpaceOnUse" x="31" y="21" width="1" height="2">
<g opacity="0.6">
<g opacity="0.6">
<path opacity="0.6" d="M31.8577 21.9547C31.783 21.9901 31.7096 22.024 31.6362 22.0567C31.7096 22.0227 31.783 21.9887 31.8577 21.9547Z" fill="url(#paint61_linear_13107_82454)"/>
</g>
</g>
</mask>
<g mask="url(#mask29_13107_82454)">
<path opacity="0.6" d="M31.8577 21.9547C31.783 21.9901 31.7096 22.024 31.6362 22.0567C31.7096 22.0227 31.783 21.9887 31.8577 21.9547Z" fill="url(#paint62_linear_13107_82454)"/>
</g>
<mask id="mask30_13107_82454" style="mask-type:alpha" maskUnits="userSpaceOnUse" x="46" y="6" width="1" height="1">
<g opacity="0.6">
<g opacity="0.6">
<path opacity="0.6" d="M46.9156 6.25755C46.9061 6.23174 46.8966 6.20456 46.8857 6.17874C46.8966 6.20456 46.9061 6.23174 46.9156 6.25755Z" fill="url(#paint63_linear_13107_82454)"/>
</g>
</g>
</mask>
<g mask="url(#mask30_13107_82454)">
<path opacity="0.6" d="M46.9156 6.25755C46.9061 6.23174 46.8966 6.20456 46.8857 6.17874C46.8966 6.20456 46.9061 6.23174 46.9156 6.25755Z" fill="url(#paint64_linear_13107_82454)"/>
</g>
<mask id="mask31_13107_82454" style="mask-type:alpha" maskUnits="userSpaceOnUse" x="31" y="3" width="16" height="19">
<g opacity="0.6">
<g opacity="0.6">
<path opacity="0.6" d="M45.2532 14.1686C46.1405 13.1142 46.1323 12.3872 46.5767 11.2974C47.3879 9.30812 47.3308 3.99646 40.7147 3.2097C34.0986 2.42294 31.4434 18.9884 31.3945 20.7997C31.3945 20.7997 31.2668 21.5362 31.8565 21.9534C35.3514 20.3187 40.4484 16.8374 43.6511 15.238C44.3876 14.8712 44.9936 14.4323 45.491 13.9458C45.4149 14.0219 45.3361 14.0966 45.2532 14.1686Z" fill="url(#paint65_linear_13107_82454)"/>
</g>
</g>
</mask>
<g mask="url(#mask31_13107_82454)">
<path opacity="0.6" d="M45.2532 14.1686C46.1405 13.1142 46.1323 12.3872 46.5767 11.2974C47.3879 9.30812 47.3308 3.99646 40.7147 3.2097C34.0986 2.42294 31.4434 18.9884 31.3945 20.7997C31.3945 20.7997 31.2668 21.5362 31.8565 21.9534C35.3514 20.3187 40.4484 16.8374 43.6511 15.238C44.3876 14.8712 44.9936 14.4323 45.491 13.9458C45.4149 14.0219 45.3361 14.0966 45.2532 14.1686Z" fill="url(#paint66_linear_13107_82454)"/>
</g>
<mask id="mask32_13107_82454" style="mask-type:alpha" maskUnits="userSpaceOnUse" x="31" y="22" width="1" height="1">
<g opacity="0.6">
<g opacity="0.6">
<path opacity="0.6" d="M31.6345 22.0567C31.5625 22.0893 31.4905 22.1219 31.4185 22.1531C31.4905 22.1219 31.5625 22.0893 31.6345 22.0567Z" fill="url(#paint67_linear_13107_82454)"/>
</g>
</g>
</mask>
<g mask="url(#mask32_13107_82454)">
<path opacity="0.6" d="M31.6345 22.0567C31.5625 22.0893 31.4905 22.1219 31.4185 22.1531C31.4905 22.1219 31.5625 22.0893 31.6345 22.0567Z" fill="url(#paint68_linear_13107_82454)"/>
</g>
<mask id="mask33_13107_82454" style="mask-type:alpha" maskUnits="userSpaceOnUse" x="47" y="6" width="1" height="1">
<g opacity="0.6">
<g opacity="0.6">
<path opacity="0.6" d="M47.0917 6.78206C47.0808 6.74537 47.07 6.71004 47.0591 6.67471C47.07 6.71004 47.0808 6.74537 47.0917 6.78206Z" fill="url(#paint69_linear_13107_82454)"/>
</g>
</g>
</mask>
<g mask="url(#mask33_13107_82454)">
<path opacity="0.6" d="M47.0917 6.78206C47.0808 6.74537 47.07 6.71004 47.0591 6.67471C47.07 6.71004 47.0808 6.74537 47.0917 6.78206Z" fill="url(#paint70_linear_13107_82454)"/>
</g>
<mask id="mask34_13107_82454" style="mask-type:alpha" maskUnits="userSpaceOnUse" x="47" y="6" width="1" height="2">
<g opacity="0.6">
<g opacity="0.6">
<path opacity="0.6" d="M47.1647 7.04839C47.1551 7.01034 47.1443 6.9723 47.1348 6.93561C47.1443 6.9723 47.1551 7.01034 47.1647 7.04839Z" fill="url(#paint71_linear_13107_82454)"/>
</g>
</g>
</mask>
<g mask="url(#mask34_13107_82454)">
<path opacity="0.6" d="M47.1647 7.04839C47.1551 7.01034 47.1443 6.9723 47.1348 6.93561C47.1443 6.9723 47.1551 7.01034 47.1647 7.04839Z" fill="url(#paint72_linear_13107_82454)"/>
</g>
<mask id="mask35_13107_82454" style="mask-type:alpha" maskUnits="userSpaceOnUse" x="46" y="6" width="2" height="1">
<g opacity="0.6">
<g opacity="0.6">
<path opacity="0.6" d="M47.0087 6.51982C46.9978 6.48721 46.9869 6.45459 46.9761 6.42198C46.9869 6.45459 46.9978 6.48721 47.0087 6.51982Z" fill="url(#paint73_linear_13107_82454)"/>
</g>
</g>
</mask>
<g mask="url(#mask35_13107_82454)">
<path opacity="0.6" d="M47.0082 6.5198C46.9973 6.48719 46.9865 6.45458 46.9756 6.42197C46.9865 6.45458 46.9973 6.48719 47.0082 6.5198Z" fill="url(#paint74_linear_13107_82454)"/>
</g>
<mask id="mask36_13107_82454" style="mask-type:alpha" maskUnits="userSpaceOnUse" x="47" y="7" width="1" height="1">
<g opacity="0.6">
<g opacity="0.6">
<path opacity="0.6" d="M47.2298 7.32015C47.2217 7.28075 47.2121 7.2427 47.2026 7.20465C47.2121 7.24406 47.2217 7.2821 47.2298 7.32015Z" fill="url(#paint75_linear_13107_82454)"/>
</g>
</g>
</mask>
<g mask="url(#mask36_13107_82454)">
<path opacity="0.6" d="M47.2298 7.32015C47.2217 7.28075 47.2121 7.2427 47.2026 7.20465C47.2121 7.24406 47.2217 7.2821 47.2298 7.32015Z" fill="url(#paint76_linear_13107_82454)"/>
</g>
</g>
<path opacity="0.79" d="M44.2584 3.0874C42.1835 1.90793 38.6111 2.08594 35.5959 4.96937C32.7097 7.72915 32.635 10.0188 31.0506 16.427C30.1864 19.9219 30.431 21.3799 30.9949 22.3311C31.4528 22.1803 31.34 22.2863 31.8917 22.0281C31.302 21.6109 31.4297 20.8745 31.4297 20.8745C31.4786 19.0631 34.1338 2.49766 40.7499 3.28443C47.366 4.07119 47.4231 9.38285 46.6119 11.3722C46.1675 12.462 46.1757 13.1876 45.2884 14.2434C47.949 11.8953 47.7859 8.26046 46.8266 6.01839C46.6078 5.50883 46.2423 4.85931 45.7327 4.17854C45.3278 3.79399 44.8508 3.42439 44.2584 3.0874Z" fill="#FFF039"/>
<path d="M28.9346 4.13506C30.4592 4.22338 34.0546 5.2031 34.5139 5.40284C34.9746 5.60259 35.0724 5.03188 36.6242 4.10245C38.1773 3.17165 39.4451 2.69334 39.4451 2.69334C39.4451 2.69334 38.6923 2.25716 36.1622 1.49893C33.6334 0.739346 33.1768 0.901047 33.1768 0.901047C33.1768 0.901047 31.4321 1.3549 30.4211 2.22998C29.4115 3.10371 28.9346 4.13506 28.9346 4.13506Z" fill="#FFF39C"/>
</g>
<path d="M27.2524 20.6285C27.2524 20.6285 23.5795 19.4586 18.0341 22.5241C12.4887 25.5896 12.8909 27.4403 13.1138 27.9213C13.338 28.4037 16.5652 29.1538 17.428 29.643C17.8398 29.8767 18.8956 30.2028 19.5532 30.3944C19.8101 30.4692 20.0601 30.2599 20.0316 29.9936C19.9065 28.8521 19.7951 26.2581 21.1526 25.0678C22.9218 23.516 26.4045 24.2593 26.4045 24.2593L27.2524 20.6285Z" fill="url(#paint77_linear_13107_82454)"/>
<mask id="mask37_13107_82454" style="mask-type:alpha" maskUnits="userSpaceOnUse" x="12" y="20" width="16" height="11">
<path d="M27.2387 20.5538C27.2387 20.5538 23.5658 19.3838 18.0204 22.4493C12.475 25.5149 12.8772 27.3656 13.1001 27.8466C13.3243 28.329 16.5515 29.0791 17.4144 29.5682C17.8261 29.802 18.8819 30.1281 19.5396 30.3197C19.7964 30.3944 20.0464 30.1852 20.0179 29.9188C19.8929 28.7774 19.7814 26.1834 21.1389 24.9931C22.9081 23.4413 26.3908 24.1846 26.3908 24.1846L27.2387 20.5538Z" fill="url(#paint78_linear_13107_82454)"/>
</mask>
<g mask="url(#mask37_13107_82454)">
<path opacity="0.65" d="M27.2387 20.5538C27.2387 20.5538 23.5658 19.3838 18.0204 22.4493C12.475 25.5149 12.8772 27.3656 13.1001 27.8466C13.3243 28.329 16.5515 29.0791 17.4144 29.5682C17.8261 29.802 18.8819 30.1281 19.5396 30.3197C19.7964 30.3944 20.0464 30.1852 20.0179 29.9188C19.8929 28.7774 19.7814 26.1834 21.1389 24.9931C22.9081 23.4413 26.3908 24.1846 26.3908 24.1846L27.2387 20.5538Z" fill="url(#paint79_linear_13107_82454)"/>
<path d="M20.7072 24.9075C19.4679 26.2215 19.597 28.6864 19.5861 29.8332C19.5834 30.0588 19.5467 30.2531 19.4883 30.4189C19.5372 30.4338 19.5848 30.4474 19.6296 30.461C19.8864 30.5357 20.1364 30.3265 20.1079 30.0601C19.9829 28.9187 19.8715 26.3247 21.2289 25.1344C22.9981 23.5826 26.4808 24.3259 26.4808 24.3259L26.6615 23.5514C25.2348 23.3937 22.2345 23.2877 20.7072 24.9075Z" fill="#F5E44C"/>
</g>
<path d="M28.6289 22.4915C28.6289 22.4915 31.5979 19.3675 36.237 18.0644C40.3896 16.8727 42.6765 17.8416 43.2771 18.1446C43.8818 18.4476 43.6399 20.4491 43.7663 21.1462C43.7975 21.4859 43.4496 22.2605 43.1602 22.751C43.0352 22.9453 42.561 23.0146 42.2675 22.8801C41.0513 22.2917 38.4627 20.9872 36.4571 21.1924C33.965 21.4316 30.9348 24.1818 30.9348 24.1818L28.6289 22.4915Z" fill="url(#paint80_linear_13107_82454)"/>
<mask id="mask38_13107_82454" style="mask-type:alpha" maskUnits="userSpaceOnUse" x="28" y="17" width="16" height="8">
<path d="M28.6274 22.433C28.6274 22.433 31.5856 19.3118 36.1866 18.0169C40.3011 16.8333 42.5813 17.8049 43.1805 18.1079C43.7838 18.4109 43.5528 20.4098 43.6805 21.1068C43.7132 21.4465 43.368 22.2197 43.0799 22.7103C42.9563 22.9046 42.4834 22.9739 42.1899 22.838C40.9792 22.2482 38.4015 20.9411 36.4067 21.1449C33.9296 21.3813 30.9116 24.1289 30.9116 24.1289L28.6274 22.433Z" fill="url(#paint81_linear_13107_82454)"/>
</mask>
<g mask="url(#mask38_13107_82454)">
<path opacity="0.65" d="M28.6274 22.433C28.6274 22.433 31.5856 19.3118 36.1866 18.0169C40.3011 16.8333 42.5813 17.8049 43.1805 18.1079C43.7838 18.4109 43.5528 20.4098 43.6805 21.1068C43.7132 21.4465 43.368 22.2197 43.0799 22.7103C42.9563 22.9046 42.4834 22.9739 42.1899 22.838C40.9792 22.2482 38.4015 20.9411 36.4067 21.1449C33.9296 21.3813 30.9116 24.1289 30.9116 24.1289L28.6274 22.433Z" fill="url(#paint82_linear_13107_82454)"/>
<path d="M36.65 20.8378C38.6461 20.7739 41.1056 22.0227 42.4481 22.5281C42.7239 22.6246 42.9916 22.6858 43.2471 22.7197C43.224 22.7564 43.2022 22.7931 43.1805 22.8271C43.0527 23.0214 42.5772 23.0921 42.2823 22.9575C41.0661 22.3692 38.4749 21.066 36.4529 21.2753C33.9432 21.5199 30.8817 24.2756 30.8817 24.2756L30.292 23.9373C31.7582 22.8624 34.3698 20.8758 36.65 20.8378Z" fill="#F5E44C"/>
</g>
<path d="M33.0195 21.4261C33.0005 20.672 32.9217 19.3621 32.9217 19.3621C32.9217 19.3621 31.0139 18.7343 28.9852 18.5617C26.9565 18.3891 24.2768 19.0101 24.2768 19.0101C24.2768 19.0101 25.175 19.7303 24.7552 20.8201C24.2075 22.2414 22.8311 24.8055 22.8311 24.8055C22.8311 24.8055 24.0418 26.2853 26.9116 25.8899C29.7815 25.4945 33.2356 22.8203 33.1582 22.5268C33.0807 22.2333 33.0195 21.4261 33.0195 21.4261Z" fill="#F7931E"/>
<path opacity="0.33" d="M33.0195 21.4261C33.0005 20.672 32.9217 19.3621 32.9217 19.3621C32.9217 19.3621 31.0139 18.7343 28.9852 18.5617C26.9565 18.3891 24.2768 19.0101 24.2768 19.0101C24.2768 19.0101 25.175 19.7303 24.7552 20.8201C24.2075 22.2414 22.8311 24.8055 22.8311 24.8055C22.8311 24.8055 24.0418 26.2853 26.9116 25.8899C29.7815 25.4945 33.2356 22.8203 33.1582 22.5268C33.0807 22.2333 33.0195 21.4261 33.0195 21.4261Z" fill="url(#paint83_linear_13107_82454)"/>
<mask id="mask39_13107_82454" style="mask-type:alpha" maskUnits="userSpaceOnUse" x="22" y="18" width="12" height="8">
<path d="M32.9326 21.4492C32.9136 20.6951 32.8348 19.3852 32.8348 19.3852C32.8348 19.3852 30.927 18.7574 28.8983 18.5848C26.8695 18.4122 24.1899 19.0332 24.1899 19.0332C24.1899 19.0332 25.0881 19.7534 24.6682 20.8432C24.1206 22.2645 22.7441 24.8286 22.7441 24.8286C22.7441 24.8286 23.9549 26.3084 26.8247 25.913C29.6945 25.5176 33.1487 22.8434 33.0712 22.5499C32.9938 22.2564 32.9326 21.4492 32.9326 21.4492Z" fill="url(#paint84_linear_13107_82454)"/>
</mask>
<g mask="url(#mask39_13107_82454)">
<path opacity="0.47" d="M32.9326 21.4492C32.9136 20.6951 32.8348 19.3852 32.8348 19.3852C32.8348 19.3852 30.927 18.7574 28.8983 18.5848C26.8695 18.4122 24.1899 19.0332 24.1899 19.0332C24.1899 19.0332 25.0881 19.7534 24.6682 20.8432C24.1206 22.2645 22.7441 24.8286 22.7441 24.8286C22.7441 24.8286 23.9549 26.3084 26.8247 25.913C29.6945 25.5176 33.1487 22.8434 33.0712 22.5499C32.9938 22.2564 32.9326 21.4492 32.9326 21.4492Z" fill="url(#paint85_linear_13107_82454)"/>
<path opacity="0.51" d="M32.7407 20.0429L32.9228 21.1734C32.9228 21.1734 29.417 20.9546 27.4209 21.4533C25.4248 21.952 24.0415 22.4222 24.0415 22.4222C24.0415 22.4222 24.5551 21.4194 24.6666 20.8419C24.778 20.2644 24.7848 19.6243 24.7848 19.6243C24.7848 19.6243 26.7741 19.1977 28.9183 19.2371C31.0639 19.2792 32.7407 20.0429 32.7407 20.0429Z" fill="#FFF39C"/>
<path d="M24.2754 19.0088C24.1885 19.0319 23.967 19.0957 24.1273 19.2751C24.2863 19.4545 24.5105 20.5293 24.1871 21.0198C23.8134 21.5865 23.3568 22.7945 23.0008 23.478C22.725 24.0093 22.6571 24.8504 22.744 24.8286C22.831 24.8055 22.9003 24.9849 22.9003 24.9849C22.9003 24.9849 23.9167 22.3556 24.4412 21.5661C24.9657 20.7766 25.0268 20.0605 24.7863 19.6257C24.5445 19.1895 24.2754 19.0088 24.2754 19.0088Z" fill="#DB6D00"/>
</g>
<defs>
<linearGradient id="paint0_linear_13107_82454" x1="34.2547" y1="59.6831" x2="26.2726" y2="20.0837" gradientUnits="userSpaceOnUse">
<stop stop-color="#D34100"/>
<stop offset="0.9908" stop-color="#FCEE21"/>
</linearGradient>
<linearGradient id="paint1_linear_13107_82454" x1="36.9959" y1="59.6623" x2="28.8497" y2="19.2491" gradientUnits="userSpaceOnUse">
<stop offset="0.0148" stop-color="#D36200"/>
<stop offset="0.9908" stop-color="#FCEE21"/>
</linearGradient>
<linearGradient id="paint2_linear_13107_82454" x1="34.3477" y1="60.1808" x2="26.2999" y2="20.2554" gradientUnits="userSpaceOnUse">
<stop stop-color="#910C00"/>
<stop offset="0.9908" stop-color="#FC9521"/>
</linearGradient>
<linearGradient id="paint3_linear_13107_82454" x1="4.72842" y1="21.1771" x2="26.9222" y2="20.9685" gradientUnits="userSpaceOnUse">
<stop offset="0.00842826" stop-color="white"/>
<stop offset="1"/>
</linearGradient>
<linearGradient id="paint4_linear_13107_82454" x1="4.72842" y1="21.1771" x2="26.9222" y2="20.9685" gradientUnits="userSpaceOnUse">
<stop offset="0.00842826" stop-color="#5D006A"/>
<stop offset="1" stop-color="#F7931E"/>
</linearGradient>
<radialGradient id="paint5_radial_13107_82454" cx="0" cy="0" r="1" gradientUnits="userSpaceOnUse" gradientTransform="translate(7.93254 11.1282) rotate(-0.538564) scale(11.126)">
<stop offset="0.00846675" stop-color="white"/>
<stop offset="0.9908"/>
</radialGradient>
<radialGradient id="paint6_radial_13107_82454" cx="0" cy="0" r="1" gradientUnits="userSpaceOnUse" gradientTransform="translate(7.93254 11.1282) rotate(-0.538564) scale(11.126)">
<stop stop-color="#FCFF21"/>
<stop offset="0.9908" stop-color="#FCB421"/>
</radialGradient>
<radialGradient id="paint7_radial_13107_82454" cx="0" cy="0" r="1" gradientUnits="userSpaceOnUse" gradientTransform="translate(31.8673 4.51791) rotate(-25.2761) scale(10.8724 10.8724)">
<stop offset="0.00846675" stop-color="white"/>
<stop offset="0.9908"/>
</radialGradient>
<radialGradient id="paint8_radial_13107_82454" cx="0" cy="0" r="1" gradientUnits="userSpaceOnUse" gradientTransform="translate(31.8673 4.51791) rotate(-25.2761) scale(10.8724 10.8724)">
<stop offset="0.00846675" stop-color="#FCEE21"/>
<stop offset="0.9908" stop-color="#FCEE21"/>
</radialGradient>
<radialGradient id="paint9_radial_13107_82454" cx="0" cy="0" r="1" gradientUnits="userSpaceOnUse" gradientTransform="translate(29.0835 18.4313) rotate(-25.2761) scale(15.5948 15.5948)">
<stop offset="0.0284" stop-color="white"/>
<stop offset="0.9908"/>
</radialGradient>
<radialGradient id="paint10_radial_13107_82454" cx="0" cy="0" r="1" gradientUnits="userSpaceOnUse" gradientTransform="translate(29.0835 18.4313) rotate(-25.2761) scale(15.5948 15.5948)">
<stop offset="0.0284" stop-color="#F7931E"/>
<stop offset="0.9908" stop-color="#FCEE21"/>
</radialGradient>
<linearGradient id="paint11_linear_13107_82454" x1="27.604" y1="20.7792" x2="39.0076" y2="29.1091" gradientUnits="userSpaceOnUse">
<stop offset="0.00842826" stop-color="white"/>
<stop offset="1"/>
</linearGradient>
<linearGradient id="paint12_linear_13107_82454" x1="27.604" y1="20.7792" x2="39.0076" y2="29.1091" gradientUnits="userSpaceOnUse">
<stop offset="0.00842826" stop-color="#5D006A"/>
<stop offset="1" stop-color="#F7931E"/>
</linearGradient>
<linearGradient id="paint13_linear_13107_82454" x1="27.6938" y1="20.6564" x2="39.097" y2="28.986" gradientUnits="userSpaceOnUse">
<stop offset="0.00842826" stop-color="white"/>
<stop offset="1"/>
</linearGradient>
<linearGradient id="paint14_linear_13107_82454" x1="27.6938" y1="20.6564" x2="39.097" y2="28.986" gradientUnits="userSpaceOnUse">
<stop offset="0.00842826" stop-color="#5D006A"/>
<stop offset="1" stop-color="#F7931E"/>
</linearGradient>
<linearGradient id="paint15_linear_13107_82454" x1="27.4404" y1="21.0037" x2="38.8436" y2="29.3336" gradientUnits="userSpaceOnUse">
<stop offset="0.00842826" stop-color="white"/>
<stop offset="1"/>
</linearGradient>
<linearGradient id="paint16_linear_13107_82454" x1="27.4404" y1="21.0037" x2="38.8436" y2="29.3336" gradientUnits="userSpaceOnUse">
<stop offset="0.00842826" stop-color="#5D006A"/>
<stop offset="1" stop-color="#F7931E"/>
</linearGradient>
<linearGradient id="paint17_linear_13107_82454" x1="27.5191" y1="20.8956" x2="38.9228" y2="29.2262" gradientUnits="userSpaceOnUse">
<stop offset="0.00842826" stop-color="white"/>
<stop offset="1"/>
</linearGradient>
<linearGradient id="paint18_linear_13107_82454" x1="27.5191" y1="20.8956" x2="38.9228" y2="29.2262" gradientUnits="userSpaceOnUse">
<stop offset="0.00842826" stop-color="#5D006A"/>
<stop offset="1" stop-color="#F7931E"/>
</linearGradient>
<linearGradient id="paint19_linear_13107_82454" x1="27.9944" y1="20.2442" x2="39.3997" y2="28.5757" gradientUnits="userSpaceOnUse">
<stop offset="0.00842826" stop-color="white"/>
<stop offset="1"/>
</linearGradient>
<linearGradient id="paint20_linear_13107_82454" x1="27.9944" y1="20.2442" x2="39.3997" y2="28.5757" gradientUnits="userSpaceOnUse">
<stop offset="0.00842826" stop-color="#5D006A"/>
<stop offset="1" stop-color="#F7931E"/>
</linearGradient>
<linearGradient id="paint21_linear_13107_82454" x1="27.7891" y1="20.5255" x2="39.1932" y2="28.8561" gradientUnits="userSpaceOnUse">
<stop offset="0.00842826" stop-color="white"/>
<stop offset="1"/>
</linearGradient>
<linearGradient id="paint22_linear_13107_82454" x1="27.7891" y1="20.5255" x2="39.1932" y2="28.8561" gradientUnits="userSpaceOnUse">
<stop offset="0.00842826" stop-color="#5D006A"/>
<stop offset="1" stop-color="#F7931E"/>
</linearGradient>
<linearGradient id="paint23_linear_13107_82454" x1="28.105" y1="20.0943" x2="39.5081" y2="28.4241" gradientUnits="userSpaceOnUse">
<stop offset="0.00842826" stop-color="white"/>
<stop offset="1"/>
</linearGradient>
<linearGradient id="paint24_linear_13107_82454" x1="28.105" y1="20.0943" x2="39.5081" y2="28.4241" gradientUnits="userSpaceOnUse">
<stop offset="0.00842826" stop-color="#5D006A"/>
<stop offset="1" stop-color="#F7931E"/>
</linearGradient>
<linearGradient id="paint25_linear_13107_82454" x1="27.8894" y1="20.3881" x2="39.2935" y2="28.7187" gradientUnits="userSpaceOnUse">
<stop offset="0.00842826" stop-color="white"/>
<stop offset="1"/>
</linearGradient>
<linearGradient id="paint26_linear_13107_82454" x1="27.8894" y1="20.3881" x2="39.2935" y2="28.7187" gradientUnits="userSpaceOnUse">
<stop offset="0.00842826" stop-color="#5D006A"/>
<stop offset="1" stop-color="#F7931E"/>
</linearGradient>
<linearGradient id="paint27_linear_13107_82454" x1="27.367" y1="21.104" x2="38.7691" y2="29.4331" gradientUnits="userSpaceOnUse">
<stop offset="0.00842826" stop-color="white"/>
<stop offset="1"/>
</linearGradient>
<linearGradient id="paint28_linear_13107_82454" x1="27.367" y1="21.104" x2="38.7691" y2="29.4331" gradientUnits="userSpaceOnUse">
<stop offset="0.00842826" stop-color="#5D006A"/>
<stop offset="1" stop-color="#F7931E"/>
</linearGradient>
<linearGradient id="paint29_linear_13107_82454" x1="27.1125" y1="21.4519" x2="38.5164" y2="29.7823" gradientUnits="userSpaceOnUse">
<stop offset="0.00842826" stop-color="white"/>
<stop offset="1"/>
</linearGradient>
<linearGradient id="paint30_linear_13107_82454" x1="27.1125" y1="21.4519" x2="38.5164" y2="29.7823" gradientUnits="userSpaceOnUse">
<stop offset="0.00842826" stop-color="#5D006A"/>
<stop offset="1" stop-color="#F7931E"/>
</linearGradient>
<linearGradient id="paint31_linear_13107_82454" x1="27.0027" y1="21.6027" x2="38.4063" y2="29.9329" gradientUnits="userSpaceOnUse">
<stop offset="0.00842826" stop-color="white"/>
<stop offset="1"/>
</linearGradient>
<linearGradient id="paint32_linear_13107_82454" x1="27.0027" y1="21.6027" x2="38.4063" y2="29.9329" gradientUnits="userSpaceOnUse">
<stop offset="0.00842826" stop-color="#5D006A"/>
<stop offset="1" stop-color="#F7931E"/>
</linearGradient>
<linearGradient id="paint33_linear_13107_82454" x1="27.0536" y1="21.533" x2="38.4575" y2="29.8634" gradientUnits="userSpaceOnUse">
<stop offset="0.00842826" stop-color="white"/>
<stop offset="1"/>
</linearGradient>
<linearGradient id="paint34_linear_13107_82454" x1="27.0536" y1="21.533" x2="38.4575" y2="29.8634" gradientUnits="userSpaceOnUse">
<stop offset="0.00842826" stop-color="#5D006A"/>
<stop offset="1" stop-color="#F7931E"/>
</linearGradient>
<linearGradient id="paint35_linear_13107_82454" x1="27.1788" y1="21.3618" x2="38.5804" y2="29.6926" gradientUnits="userSpaceOnUse">
<stop offset="0.00842826" stop-color="white"/>
<stop offset="1"/>
</linearGradient>
<linearGradient id="paint36_linear_13107_82454" x1="27.1788" y1="21.3618" x2="38.5804" y2="29.6926" gradientUnits="userSpaceOnUse">
<stop offset="0.00842826" stop-color="#5D006A"/>
<stop offset="1" stop-color="#F7931E"/>
</linearGradient>
<linearGradient id="paint37_linear_13107_82454" x1="27.2993" y1="21.1967" x2="38.703" y2="29.5273" gradientUnits="userSpaceOnUse">
<stop offset="0.00842826" stop-color="white"/>
<stop offset="1"/>
</linearGradient>
<linearGradient id="paint38_linear_13107_82454" x1="27.2993" y1="21.1967" x2="38.703" y2="29.5273" gradientUnits="userSpaceOnUse">
<stop offset="0.00842826" stop-color="#5D006A"/>
<stop offset="1" stop-color="#F7931E"/>
</linearGradient>
<linearGradient id="paint39_linear_13107_82454" x1="28.2194" y1="19.9371" x2="39.623" y2="28.2672" gradientUnits="userSpaceOnUse">
<stop offset="0.00842826" stop-color="white"/>
<stop offset="1"/>
</linearGradient>
<linearGradient id="paint40_linear_13107_82454" x1="28.2194" y1="19.9371" x2="39.623" y2="28.2672" gradientUnits="userSpaceOnUse">
<stop offset="0.00842826" stop-color="#5D006A"/>
<stop offset="1" stop-color="#F7931E"/>
</linearGradient>
<linearGradient id="paint41_linear_13107_82454" x1="27.2367" y1="21.2826" x2="38.6385" y2="29.6111" gradientUnits="userSpaceOnUse">
<stop offset="0.00842826" stop-color="white"/>
<stop offset="1"/>
</linearGradient>
<linearGradient id="paint42_linear_13107_82454" x1="27.2367" y1="21.2826" x2="38.6385" y2="29.6111" gradientUnits="userSpaceOnUse">
<stop offset="0.00842826" stop-color="#5D006A"/>
<stop offset="1" stop-color="#F7931E"/>
</linearGradient>
<linearGradient id="paint43_linear_13107_82454" x1="40.4634" y1="3.1721" x2="51.8693" y2="11.5048" gradientUnits="userSpaceOnUse">
<stop offset="0.00842826" stop-color="white"/>
<stop offset="1"/>
</linearGradient>
<linearGradient id="paint44_linear_13107_82454" x1="40.4634" y1="3.1721" x2="51.8693" y2="11.5048" gradientUnits="userSpaceOnUse">
<stop offset="0.00842826" stop-color="#5D006A"/>
<stop offset="1" stop-color="#F7931E"/>
</linearGradient>
<linearGradient id="paint45_linear_13107_82454" x1="40.3369" y1="3.34717" x2="51.7419" y2="11.6789" gradientUnits="userSpaceOnUse">
<stop offset="0.00842826" stop-color="white"/>
<stop offset="1"/>
</linearGradient>
<linearGradient id="paint46_linear_13107_82454" x1="40.3369" y1="3.34717" x2="51.7419" y2="11.6789" gradientUnits="userSpaceOnUse">
<stop offset="0.00842826" stop-color="#5D006A"/>
<stop offset="1" stop-color="#F7931E"/>
</linearGradient>
<linearGradient id="paint47_linear_13107_82454" x1="38.1991" y1="6.27675" x2="49.602" y2="14.6064" gradientUnits="userSpaceOnUse">
<stop offset="0.00842826" stop-color="white"/>
<stop offset="1"/>
</linearGradient>
<linearGradient id="paint48_linear_13107_82454" x1="38.1991" y1="6.27675" x2="49.602" y2="14.6064" gradientUnits="userSpaceOnUse">
<stop offset="0.00842826" stop-color="#5D006A"/>
<stop offset="1" stop-color="#F7931E"/>
</linearGradient>
<linearGradient id="paint49_linear_13107_82454" x1="40.2068" y1="3.52716" x2="51.6102" y2="11.8569" gradientUnits="userSpaceOnUse">
<stop offset="0.00842826" stop-color="white"/>
<stop offset="1"/>
</linearGradient>
<linearGradient id="paint50_linear_13107_82454" x1="40.2068" y1="3.52716" x2="51.6102" y2="11.8569" gradientUnits="userSpaceOnUse">
<stop offset="0.00842826" stop-color="#5D006A"/>
<stop offset="1" stop-color="#F7931E"/>
</linearGradient>
<linearGradient id="paint51_linear_13107_82454" x1="40.5895" y1="3.0047" x2="51.9916" y2="11.3339" gradientUnits="userSpaceOnUse">
<stop offset="0.00842826" stop-color="white"/>
<stop offset="1"/>
</linearGradient>
<linearGradient id="paint52_linear_13107_82454" x1="40.5895" y1="3.0047" x2="51.9916" y2="11.3339" gradientUnits="userSpaceOnUse">
<stop offset="0.00842826" stop-color="#5D006A"/>
<stop offset="1" stop-color="#F7931E"/>
</linearGradient>
<linearGradient id="paint53_linear_13107_82454" x1="40.7264" y1="2.81499" x2="52.1308" y2="11.146" gradientUnits="userSpaceOnUse">
<stop offset="0.00842826" stop-color="white"/>
<stop offset="1"/>
</linearGradient>
<linearGradient id="paint54_linear_13107_82454" x1="40.7264" y1="2.81499" x2="52.1308" y2="11.146" gradientUnits="userSpaceOnUse">
<stop offset="0.00842826" stop-color="#5D006A"/>
<stop offset="1" stop-color="#F7931E"/>
</linearGradient>
<linearGradient id="paint55_linear_13107_82454" x1="39.8751" y1="3.98127" x2="51.2788" y2="12.3116" gradientUnits="userSpaceOnUse">
<stop offset="0.00842826" stop-color="white"/>
<stop offset="1"/>
</linearGradient>
<linearGradient id="paint56_linear_13107_82454" x1="39.8751" y1="3.98127" x2="51.2788" y2="12.3116" gradientUnits="userSpaceOnUse">
<stop offset="0.00842826" stop-color="#5D006A"/>
<stop offset="1" stop-color="#F7931E"/>
</linearGradient>
<linearGradient id="paint57_linear_13107_82454" x1="39.3876" y1="4.64595" x2="50.7925" y2="12.9775" gradientUnits="userSpaceOnUse">
<stop offset="0.00842826" stop-color="white"/>
<stop offset="1"/>
</linearGradient>
<linearGradient id="paint58_linear_13107_82454" x1="39.3876" y1="4.64595" x2="50.7925" y2="12.9775" gradientUnits="userSpaceOnUse">
<stop offset="0.00842826" stop-color="#5D006A"/>
<stop offset="1" stop-color="#F7931E"/>
</linearGradient>
<linearGradient id="paint59_linear_13107_82454" x1="39.5414" y1="4.4371" x2="50.9459" y2="12.7679" gradientUnits="userSpaceOnUse">
<stop offset="0.00842826" stop-color="white"/>
<stop offset="1"/>
</linearGradient>
<linearGradient id="paint60_linear_13107_82454" x1="39.5414" y1="4.4371" x2="50.9459" y2="12.7679" gradientUnits="userSpaceOnUse">
<stop offset="0.00842826" stop-color="#5D006A"/>
<stop offset="1" stop-color="#F7931E"/>
</linearGradient>
<linearGradient id="paint61_linear_13107_82454" x1="28.4613" y1="19.6054" x2="39.8658" y2="27.9362" gradientUnits="userSpaceOnUse">
<stop offset="0.00842826" stop-color="white"/>
<stop offset="1"/>
</linearGradient>
<linearGradient id="paint62_linear_13107_82454" x1="28.4613" y1="19.6054" x2="39.8658" y2="27.9362" gradientUnits="userSpaceOnUse">
<stop offset="0.00842826" stop-color="#5D006A"/>
<stop offset="1" stop-color="#F7931E"/>
</linearGradient>
<linearGradient id="paint63_linear_13107_82454" x1="41.2527" y1="2.0924" x2="52.6586" y2="10.4243" gradientUnits="userSpaceOnUse">
<stop offset="0.00842826" stop-color="white"/>
<stop offset="1"/>
</linearGradient>
<linearGradient id="paint64_linear_13107_82454" x1="41.2527" y1="2.0924" x2="52.6586" y2="10.4243" gradientUnits="userSpaceOnUse">
<stop offset="0.00842826" stop-color="#5D006A"/>
<stop offset="1" stop-color="#F7931E"/>
</linearGradient>
<linearGradient id="paint65_linear_13107_82454" x1="34.8816" y1="10.8173" x2="46.2854" y2="19.1476" gradientUnits="userSpaceOnUse">
<stop offset="0.00842826" stop-color="white"/>
<stop offset="1"/>
</linearGradient>
<linearGradient id="paint66_linear_13107_82454" x1="34.8816" y1="10.8173" x2="46.2854" y2="19.1476" gradientUnits="userSpaceOnUse">
<stop offset="0.00842826" stop-color="#5D006A"/>
<stop offset="1" stop-color="#F7931E"/>
</linearGradient>
<linearGradient id="paint67_linear_13107_82454" x1="28.3381" y1="19.7753" x2="39.7398" y2="28.1041" gradientUnits="userSpaceOnUse">
<stop offset="0.00842826" stop-color="white"/>
<stop offset="1"/>
</linearGradient>
<linearGradient id="paint68_linear_13107_82454" x1="28.3381" y1="19.7753" x2="39.7398" y2="28.1041" gradientUnits="userSpaceOnUse">
<stop offset="0.00842826" stop-color="#5D006A"/>
<stop offset="1" stop-color="#F7931E"/>
</linearGradient>
<linearGradient id="paint69_linear_13107_82454" x1="41.0718" y1="2.34294" x2="52.4761" y2="10.6733" gradientUnits="userSpaceOnUse">
<stop offset="0.00842826" stop-color="white"/>
<stop offset="1"/>
</linearGradient>
<linearGradient id="paint70_linear_13107_82454" x1="41.0718" y1="2.34294" x2="52.4761" y2="10.6733" gradientUnits="userSpaceOnUse">
<stop offset="0.00842826" stop-color="#5D006A"/>
<stop offset="1" stop-color="#F7931E"/>
</linearGradient>
<linearGradient id="paint71_linear_13107_82454" x1="40.972" y1="2.47952" x2="52.3757" y2="10.8098" gradientUnits="userSpaceOnUse">
<stop offset="0.00842826" stop-color="white"/>
<stop offset="1"/>
</linearGradient>
<linearGradient id="paint72_linear_13107_82454" x1="40.972" y1="2.47952" x2="52.3757" y2="10.8098" gradientUnits="userSpaceOnUse">
<stop offset="0.00842826" stop-color="#5D006A"/>
<stop offset="1" stop-color="#F7931E"/>
</linearGradient>
<linearGradient id="paint73_linear_13107_82454" x1="41.166" y1="2.21561" x2="52.5682" y2="10.5454" gradientUnits="userSpaceOnUse">
<stop offset="0.00842826" stop-color="white"/>
<stop offset="1"/>
</linearGradient>
<linearGradient id="paint74_linear_13107_82454" x1="41.1656" y1="2.21559" x2="52.5677" y2="10.5454" gradientUnits="userSpaceOnUse">
<stop offset="0.00842826" stop-color="#5D006A"/>
<stop offset="1" stop-color="#F7931E"/>
</linearGradient>
<linearGradient id="paint75_linear_13107_82454" x1="40.8667" y1="2.62408" x2="52.2703" y2="10.9535" gradientUnits="userSpaceOnUse">
<stop offset="0.00842826" stop-color="white"/>
<stop offset="1"/>
</linearGradient>
<linearGradient id="paint76_linear_13107_82454" x1="40.8667" y1="2.62408" x2="52.2703" y2="10.9535" gradientUnits="userSpaceOnUse">
<stop offset="0.00842826" stop-color="#5D006A"/>
<stop offset="1" stop-color="#F7931E"/>
</linearGradient>
<linearGradient id="paint77_linear_13107_82454" x1="18.2597" y1="29.9869" x2="22.0047" y2="18.8612" gradientUnits="userSpaceOnUse">
<stop stop-color="#FCFF21"/>
<stop offset="0.0904" stop-color="#FCF121"/>
<stop offset="0.308" stop-color="#FCD721"/>
<stop offset="0.5294" stop-color="#FCC321"/>
<stop offset="0.755" stop-color="#FCB821"/>
<stop offset="0.9908" stop-color="#FCB421"/>
</linearGradient>
<linearGradient id="paint78_linear_13107_82454" x1="25.445" y1="19.7091" x2="19.52" y2="25.4043" gradientUnits="userSpaceOnUse">
<stop offset="0.00842826" stop-color="white"/>
<stop offset="0.3113" stop-color="#A9A9A9"/>
<stop offset="0.6487" stop-color="#4F4F4F"/>
<stop offset="0.8861" stop-color="#161616"/>
<stop offset="1"/>
</linearGradient>
<linearGradient id="paint79_linear_13107_82454" x1="25.445" y1="19.7091" x2="19.52" y2="25.4043" gradientUnits="userSpaceOnUse">
<stop offset="0.00842826" stop-color="#5D006A"/>
<stop offset="0.453" stop-color="#A84845"/>
<stop offset="0.8226" stop-color="#E17E29"/>
<stop offset="1" stop-color="#F7931E"/>
</linearGradient>
<linearGradient id="paint80_linear_13107_82454" x1="42.8078" y1="23.2144" x2="33.4907" y2="16.1132" gradientUnits="userSpaceOnUse">
<stop stop-color="#FCFF21"/>
<stop offset="0.0904" stop-color="#FCF121"/>
<stop offset="0.308" stop-color="#FCD721"/>
<stop offset="0.5294" stop-color="#FCC321"/>
<stop offset="0.755" stop-color="#FCB821"/>
<stop offset="0.9908" stop-color="#FCB421"/>
</linearGradient>
<linearGradient id="paint81_linear_13107_82454" x1="29.5069" y1="21.4921" x2="37.1635" y2="23.0596" gradientUnits="userSpaceOnUse">
<stop offset="0.00842826" stop-color="white"/>
<stop offset="0.3113" stop-color="#A9A9A9"/>
<stop offset="0.6487" stop-color="#4F4F4F"/>
<stop offset="0.8861" stop-color="#161616"/>
<stop offset="1"/>
</linearGradient>
<linearGradient id="paint82_linear_13107_82454" x1="29.5069" y1="21.4921" x2="37.1635" y2="23.0596" gradientUnits="userSpaceOnUse">
<stop offset="0.00842826" stop-color="#5D006A"/>
<stop offset="0.453" stop-color="#A84845"/>
<stop offset="0.8226" stop-color="#E17E29"/>
<stop offset="1" stop-color="#F7931E"/>
</linearGradient>
<linearGradient id="paint83_linear_13107_82454" x1="28.7649" y1="25.4481" x2="26.8813" y2="18.3208" gradientUnits="userSpaceOnUse">
<stop offset="0.00842826" stop-color="#5D006A"/>
<stop offset="1" stop-color="#F7931E"/>
</linearGradient>
<linearGradient id="paint84_linear_13107_82454" x1="28.6778" y1="25.4711" x2="26.7942" y2="18.3438" gradientUnits="userSpaceOnUse">
<stop offset="0.0116"/>
<stop offset="0.1282" stop-color="#383838"/>
<stop offset="0.2522" stop-color="#6C6C6C"/>
<stop offset="0.3782" stop-color="#999999"/>
<stop offset="0.5039" stop-color="#BEBEBE"/>
<stop offset="0.6291" stop-color="#DADADA"/>
<stop offset="0.7538" stop-color="#EFEFEF"/>
<stop offset="0.8776" stop-color="#FBFBFB"/>
<stop offset="1" stop-color="white"/>
</linearGradient>
<linearGradient id="paint85_linear_13107_82454" x1="28.6778" y1="25.4711" x2="26.7942" y2="18.3438" gradientUnits="userSpaceOnUse">
<stop offset="0.0116" stop-color="#FCB421"/>
<stop offset="0.0829" stop-color="#FCBE21"/>
<stop offset="0.3131" stop-color="#FCDB21"/>
<stop offset="0.5438" stop-color="#FCEF21"/>
<stop offset="0.7732" stop-color="#FCFB21"/>
<stop offset="1" stop-color="#FCFF21"/>
</linearGradient>
</defs>
</svg>
