<svg width="114" height="114" viewBox="0 0 114 114" fill="none" xmlns="http://www.w3.org/2000/svg">
<g clip-path="url(#clip0_26749_177435)">
<path d="M100.855 44.6254L12.474 45.3864C10.517 46.7075 9.12891 48.9463 9.12891 51.4851V106.646C9.12891 110.708 12.4218 114.001 16.4844 114.001H97.3878C101.449 114.001 104.742 110.708 104.742 106.646V51.4851C104.742 48.781 103.099 46.3692 100.855 44.6254Z" fill="#FFD064"/>
<path d="M93.7096 110.323H34.8709C22.6848 110.323 12.8062 100.445 12.8062 88.2587V44.8521L12.3713 45.2556C10.4492 46.7725 9.12891 48.946 9.12891 51.4848V106.646C9.12891 110.708 12.4218 114.001 16.4844 114.001H93.7096V110.323Z" fill="#FFC250"/>
<path d="M100.072 43.6757L93.7079 38.0466L20.1618 38.0484L13.7995 43.6765C11.3181 45.8718 11.3181 49.7439 13.7995 51.9392L56.9357 90.0977L100.072 51.9392C102.553 49.7439 102.553 45.8718 100.072 43.6757Z" fill="#FFA95F"/>
<path d="M20.1621 16.5497V57.5663L56.9361 90.0976L93.71 57.5663V1.83963C93.71 0.823761 92.8872 0.000976562 91.8713 0.000976562H36.71L20.1621 16.5497Z" fill="#F2F4F8"/>
<path d="M67.3278 75.9936L66.6825 75.4222C63.9906 73.0408 60.529 71.7301 56.9361 71.7301C53.3422 71.7301 49.8815 73.0408 47.1896 75.4222L46.533 76.0032L20.1621 52.7191V57.5662L43.768 78.4489L56.9361 90.0975L93.71 57.5662V52.6504L67.3278 75.9936Z" fill="#DAD8DB"/>
<path d="M20.1621 16.5497H34.8713C35.8872 16.5497 36.71 15.7261 36.71 14.7111V0.000976562L20.1621 16.5497Z" fill="#DDE1E6"/>
<path d="M64.2452 78.1775C60.0721 74.4854 53.8004 74.4854 49.6264 78.1775L11.4287 111.967C12.7481 113.221 14.5215 114.002 16.4846 114.002H97.3879C99.351 114.002 101.124 113.221 102.443 111.967L64.2452 78.1775Z" fill="#FFE07D"/>
<path d="M102.443 111.967L100.585 110.324H34.8707C29.0947 110.324 23.8344 108.101 19.9014 104.468L11.417 111.977C12.7355 113.231 14.5211 114.001 16.4842 114.001H97.3875C99.3497 114.001 101.123 113.22 102.443 111.967Z" fill="#FFD064"/>
<path d="M57.0001 17.001C68.0463 17.001 77.0001 25.9558 77.0001 37.001C77.0001 48.0461 68.0452 57.001 57.0001 57.001C45.9549 57.001 37.0001 48.0472 37.0001 37.001C36.9685 25.9863 45.8723 17.0325 56.887 17.001C56.924 17.001 56.962 17.001 57.0001 17.001Z" fill="#48BB78"/>
<path d="M68.0808 31.4893L53.8763 45.6948L45.9209 37.7971L49.1596 34.6149L53.8763 39.274L64.8421 28.3082L68.0808 31.4893Z" fill="white"/>
</g>
<defs>
<clipPath id="clip0_26749_177435">
<rect width="114" height="114" fill="white" transform="translate(0 0.000976562)"/>
</clipPath>
</defs>
</svg>
